<svg xmlns="http://www.w3.org/2000/svg" viewBox="0 0 258 365" width="258" height="365" role="img" aria-label="Nistar growing plant icon">
  <path d="M 229.0 126.0 L 223.0 126.0 L 207.0 136.0 L 196.0 147.0 L 194.0 152.0 L 198.0 152.0 L 214.0 139.0 L 225.0 133.0 L 229.0 129.0 Z M 36.0 87.0 L 35.0 90.0 L 48.0 105.0 L 58.0 111.0 L 59.0 107.0 L 49.0 95.0 L 39.0 86.0 Z M 202.0 73.0 L 198.0 74.0 L 193.0 80.0 L 183.0 100.0 L 187.0 100.0 L 195.0 90.0 L 204.0 75.0 Z M 125.0 12.0 L 120.0 13.0 L 115.0 18.0 L 96.0 48.0 L 90.0 69.0 L 87.0 90.0 L 88.0 106.0 L 93.0 124.0 L 105.0 144.0 L 116.0 156.0 L 124.0 171.0 L 123.0 265.0 L 121.0 264.0 L 113.0 242.0 L 115.0 227.0 L 114.0 203.0 L 110.0 192.0 L 98.0 175.0 L 82.0 162.0 L 56.0 149.0 L 17.0 140.0 L 12.0 143.0 L 24.0 161.0 L 33.0 192.0 L 46.0 214.0 L 56.0 224.0 L 76.0 235.0 L 96.0 240.0 L 108.0 249.0 L 119.0 278.0 L 121.0 312.0 L 91.0 313.0 L 70.0 320.0 L 30.0 344.0 L 24.0 349.0 L 24.0 353.0 L 30.0 352.0 L 69.0 328.0 L 88.0 321.0 L 100.0 319.0 L 158.0 321.0 L 179.0 328.0 L 213.0 346.0 L 222.0 349.0 L 229.0 347.0 L 227.0 344.0 L 173.0 318.0 L 154.0 313.0 L 129.0 313.0 L 132.0 291.0 L 144.0 266.0 L 153.0 260.0 L 186.0 253.0 L 210.0 242.0 L 224.0 227.0 L 246.0 179.0 L 242.0 176.0 L 208.0 178.0 L 187.0 184.0 L 169.0 194.0 L 155.0 208.0 L 147.0 220.0 L 137.0 245.0 L 135.0 265.0 L 133.0 268.0 L 131.0 267.0 L 133.0 253.0 L 131.0 225.0 L 133.0 163.0 L 144.0 143.0 L 151.0 124.0 L 155.0 102.0 L 155.0 90.0 L 150.0 59.0 Z M 236.0 184.0 L 219.0 221.0 L 203.0 238.0 L 188.0 245.0 L 154.0 252.0 L 169.0 236.0 L 189.0 222.0 L 189.0 219.0 L 186.0 219.0 L 170.0 227.0 L 146.0 250.0 L 144.0 249.0 L 157.0 218.0 L 177.0 198.0 L 189.0 191.0 L 210.0 185.0 Z M 25.0 149.0 L 37.0 150.0 L 65.0 160.0 L 90.0 177.0 L 100.0 188.0 L 106.0 202.0 L 108.0 228.0 L 105.0 228.0 L 95.0 211.0 L 72.0 190.0 L 68.0 192.0 L 70.0 196.0 L 84.0 209.0 L 101.0 234.0 L 98.0 235.0 L 75.0 227.0 L 57.0 215.0 L 46.0 202.0 L 41.0 192.0 L 35.0 169.0 Z M 122.0 23.0 L 140.0 53.0 L 147.0 81.0 L 145.0 118.0 L 139.0 136.0 L 133.0 146.0 L 131.0 145.0 L 125.0 84.0 L 122.0 81.0 L 119.0 85.0 L 124.0 143.0 L 123.0 154.0 L 101.0 123.0 L 95.0 99.0 L 96.0 80.0 L 103.0 54.0 L 112.0 36.0 Z" fill="#71865B" fill-rule="evenodd"/>
</svg>
